<svg viewBox="0 0 438.43 166.45" xmlns="http://www.w3.org/2000/svg"><path d="M0 34.15h3.92l4-9h18.45l4 9h4.11L19 0h-3.57zm9.43-12.4l7.75-17.29 7.69 17.29zm38.47 12.4h22.88v-3.54H51.72V.24H47.9zm27.38 0h3.83V.24h-3.83zm19.79 0h3.87V3.78h11.37V.24H83.7v3.54h11.37zm30.39 0h3.87V3.78h11.37V.24h-26.61v3.54h11.37zm19.54 0h22.89v-3.54h-19.11V.24H145zm27 0h24.72v-3.49h-20.9V18.79h18.48v-3.48h-18.48V3.73h20.66V.24H172zM.41 100.14h41.78v-9.55H10.87V40.5H.41zm47.59 0h10.7l6.13-14.4H93l6 14.4h11.1L83.89 40.07h-9.7zm20.66-23.69L78.87 52.6l10.3 23.85zm46.72 23.69h10.55V50.21h18.89V40.5H96.48v9.71h18.9zm37.1 0h44.59v-9.37H163v-16h29.87v-9.39H163V49.87h33.7V40.5h-44.22zm71.73 0H266v-9.55h-31.33V40.5h-10.46zm48.16 0h10.47V40.5h-10.47zm17.87 0H332v-9.55h-31.29V40.5h-10.47zm47.57 0h41.79v-9.55h-31.32V40.5h-10.47zm48.94 0h10.55V76.37L421 40.5h-12l-16.89 26.41-16.68-26.41h-12.34l23.66 36.12zm-163.29 66.13c12.51 0 21.28-6.64 21.28-17.8v-.17c0-9.88-6.56-14.4-19.15-17.47-11.4-2.72-14.13-4.77-14.13-9.37v-.17c0-3.92 3.58-7.07 9.7-7.07 5.45 0 10.81 2.13 16.17 6.13l5.62-7.92a33 33 0 00-21.61-7.5c-11.83 0-20.34 7.07-20.34 17.3v.17c0 11 7.14 14.74 19.82 17.8 11.07 2.56 13.45 4.86 13.45 9.12v.17c0 4.52-4.08 7.5-10.55 7.5-7.41 0-13.11-2.81-18.81-7.75l-6.3 7.49a36.68 36.68 0 0024.85 9.54zm27.41-.85h10.46v-59.63h-10.46zm17.87 0H279V123l32.85 42.43h8.77v-59.64h-10.3V147l-31.91-41.23h-9.7zm88.67 1.03a37.94 37.94 0 0024.85-9.29v-25H356.9v9.12h15.23v11.16a24.33 24.33 0 01-14.38 4.51c-12.17 0-20.25-9-20.25-21.3v-.17c0-11.41 8.34-21 19.32-21 7.57 0 12.08 2.47 16.67 6.39l6.64-7.92c-6.12-5.2-12.51-8.1-22.89-8.1-18 0-30.72 14.15-30.72 30.84v.17c0 17.29 12.25 30.59 30.89 30.59zm31.66-1.03h10.47v-25.13H428v25.13h10.47v-59.63H428v24.79h-28.46v-24.79h-10.47zm-170.28-70.6v-2.35l-11.11-3.8 11.11-3.81v-2.34l-15.58-5.4V80l11.47 3.69-11.51 3.8v2.3l11.51 3.81-11.47 3.69v2.94zm-.11-20.2V71.9h-15.47v2.72zm0-10.62v-2.78h-13v-4.91h-2.52v12.56h2.52V64zm0-10.57v-2.72h-6.52v-7.39h6.52V40.6h-15.47v2.72h6.43v7.39h-6.43v2.72z" fill="#fff"/></svg>