<svg id="Art" xmlns="http://www.w3.org/2000/svg" viewBox="0 0 42.36 42.36"><defs><style>.cls-1{fill:#d891fc;}</style></defs><path class="cls-1" d="M70.39,402.64a21.18,21.18,0,1,0,21.18,21.18A21.18,21.18,0,0,0,70.39,402.64Zm3,31.68a1.25,1.25,0,0,1-1.93,1.05l-8-5.93a1.37,1.37,0,0,1-.35-.37H57.42a1.25,1.25,0,0,1-1.25-1.25v-8a1.25,1.25,0,0,1,1.25-1.25h6.2l7.84-6.28a1.25,1.25,0,0,1,2,1Zm2.11-15.27a.49.49,0,0,1-.34-.62.5.5,0,0,1,.61-.34,6,6,0,0,1,0,11.46l-.13,0a.5.5,0,0,1-.14-1,5,5,0,0,0,0-9.54Zm.27,15.75a.32.32,0,0,1-.13,0,.51.51,0,0,1-.49-.37.5.5,0,0,1,.36-.61A10.58,10.58,0,0,0,83.6,423.2a9.66,9.66,0,0,0-8-9.39.5.5,0,1,1,.2-1,10.63,10.63,0,0,1,8.83,10.34A11.55,11.55,0,0,1,75.8,434.8Z" transform="translate(-49.21 -402.64)"/></svg>