<svg enable-background="new 0 0 42.4 42.4" viewBox="0 0 42.4 42.4" xmlns="http://www.w3.org/2000/svg"><path d="m21.2 0c-11.7 0-21.2 9.5-21.2 21.2s9.5 21.2 21.2 21.2 21.2-9.5 21.2-21.2c0-11.7-9.5-21.2-21.2-21.2zm3 31.7c0 .7-.6 1.3-1.2 1.3-.2 0-.5-.1-.7-.2l-8-5.9c-.1-.1-.3-.2-.3-.4h-5.8c-.7 0-1.2-.6-1.2-1.2v-8c0-.7.6-1.2 1.2-1.2h6.2l7.8-6.3c.6-.4 1.3-.3 1.8.2.2.2.2.5.2.8zm2.1-15.3c-.3-.1-.4-.3-.3-.6.1-.3.3-.4.6-.3 3.2 1 4.9 4.3 4 7.5-.6 1.9-2.1 3.4-4 4h-.1c-.3 0-.5-.2-.6-.4 0-.3.2-.5.4-.6 2.6-.8 4.1-3.6 3.3-6.3-.5-1.6-1.8-2.8-3.3-3.3zm.3 15.8h-.1c-.2 0-.4-.2-.5-.4-.1-.3.1-.5.4-.6 4.9-1.2 8.2-5.6 8.1-10.6-.1-4.6-3.4-8.6-8-9.4-.3-.1-.5-.3-.4-.6s.3-.5.6-.4c5.1.9 8.8 5.2 8.8 10.3.1 5.5-3.6 10.4-8.9 11.7z" fill="#e371fb"/></svg>