<?xml version="1.0" encoding="utf-8"?>
<!-- Generator: Adobe Illustrator 25.4.1, SVG Export Plug-In . SVG Version: 6.00 Build 0)  -->
<svg version="1.1" id="Art" xmlns="http://www.w3.org/2000/svg" xmlns:xlink="http://www.w3.org/1999/xlink" x="0px" y="0px"
	 viewBox="0 0 42.4 42.4" style="enable-background:new 0 0 42.4 42.4;" xml:space="preserve">
<style type="text/css">
	.st0{fill:#E371FB;}
</style>
<path class="st0" d="M21.2,0C9.5,0,0,9.5,0,21.2s9.5,21.2,21.2,21.2s21.2-9.5,21.2-21.2l0,0C42.4,9.5,32.9,0,21.2,0z M24.2,31.7
	c0,0.7-0.6,1.3-1.2,1.3c-0.2,0-0.5-0.1-0.7-0.2l-8-5.9c-0.1-0.1-0.3-0.2-0.3-0.4H8.2c-0.7,0-1.2-0.6-1.2-1.2v-8
	c0-0.7,0.6-1.2,1.2-1.2h6.2l7.8-6.3c0.6-0.4,1.3-0.3,1.8,0.2c0.2,0.2,0.2,0.5,0.2,0.8L24.2,31.7z M26.3,16.4
	c-0.3-0.1-0.4-0.3-0.3-0.6c0,0,0,0,0,0c0.1-0.3,0.3-0.4,0.6-0.3c3.2,1,4.9,4.3,4,7.5c-0.6,1.9-2.1,3.4-4,4h-0.1
	c-0.3,0-0.5-0.2-0.6-0.4c0-0.3,0.2-0.5,0.4-0.6l0,0c2.6-0.8,4.1-3.6,3.3-6.3C29.1,18.1,27.8,16.9,26.3,16.4L26.3,16.4z M26.6,32.2
	c0,0-0.1,0-0.1,0c-0.2,0-0.4-0.2-0.5-0.4c-0.1-0.3,0.1-0.5,0.4-0.6c0,0,0,0,0,0c4.9-1.2,8.2-5.6,8.1-10.6c-0.1-4.6-3.4-8.6-8-9.4
	c-0.3-0.1-0.5-0.3-0.4-0.6c0.1-0.3,0.3-0.5,0.6-0.4c5.1,0.9,8.8,5.2,8.8,10.3C35.6,26,31.9,30.9,26.6,32.2L26.6,32.2z"/>
</svg>
