<?xml version="1.0" ?><svg enable-background="new 0 0 32 32" version="1.1" viewBox="0 0 32 32" xml:space="preserve" xmlns="http://www.w3.org/2000/svg" xmlns:xlink="http://www.w3.org/1999/xlink"><g id="OUTLINE_copy_2"><g><path d="M16,0C7.164,0,0,7.163,0,16s7.164,16,16,16s16-7.164,16-16S24.836,0,16,0z M25.41,20.07    c-0.112,0.263-0.62,0.636-2.394,0.91c-0.145,0.022-0.201,0.211-0.288,0.607c-0.031,0.144-0.063,0.286-0.107,0.435    c-0.038,0.129-0.118,0.19-0.254,0.19h-0.022c-0.094,0-0.228-0.017-0.397-0.05c-0.3-0.059-0.637-0.113-1.066-0.113    c-0.25,0-0.509,0.022-0.769,0.065c-0.532,0.089-0.984,0.408-1.463,0.746c-0.695,0.492-1.413,0.999-2.532,0.999    c-0.049,0-0.096-0.001-0.144-0.004h0c-0.03,0.002-0.062,0.004-0.094,0.004c-1.118,0-1.836-0.507-2.53-0.998    c-0.479-0.339-0.931-0.658-1.464-0.747c-0.26-0.043-0.519-0.065-0.769-0.065c-0.451,0-0.806,0.07-1.066,0.12    c-0.158,0.031-0.294,0.057-0.397,0.057c-0.108,0-0.225-0.023-0.276-0.197c-0.044-0.151-0.076-0.296-0.107-0.438    c-0.079-0.363-0.136-0.586-0.288-0.61c-1.774-0.274-2.281-0.647-2.394-0.913c-0.016-0.038-0.025-0.076-0.027-0.113    c-0.006-0.102,0.066-0.192,0.167-0.208c2.726-0.449,3.949-3.236,4-3.354c0.001-0.003,0.003-0.006,0.004-0.01    c0.167-0.338,0.2-0.632,0.097-0.872c-0.187-0.441-0.797-0.635-1.201-0.763c-0.099-0.031-0.193-0.061-0.266-0.09    c-0.806-0.319-0.873-0.646-0.841-0.812c0.054-0.284,0.434-0.482,0.741-0.482c0.084,0,0.158,0.015,0.221,0.044    c0.363,0.17,0.689,0.256,0.971,0.256c0.39,0,0.56-0.164,0.58-0.185c-0.01-0.185-0.022-0.377-0.035-0.576    c-0.081-1.289-0.182-2.891,0.226-3.805c1.222-2.74,3.814-2.953,4.579-2.953c0.02,0,0.335-0.003,0.335-0.003l0.045,0    c0.767,0,3.365,0.213,4.587,2.955c0.408,0.915,0.307,2.518,0.226,3.806l-0.003,0.056c-0.011,0.179-0.022,0.354-0.031,0.521    c0.019,0.02,0.176,0.17,0.529,0.184h0c0.268-0.01,0.577-0.096,0.915-0.254c0.099-0.046,0.209-0.056,0.284-0.056    c0.115,0,0.231,0.022,0.327,0.062l0.006,0.002c0.274,0.097,0.453,0.289,0.457,0.49c0.004,0.189-0.141,0.473-0.848,0.752    c-0.073,0.029-0.167,0.059-0.266,0.09c-0.404,0.128-1.014,0.322-1.201,0.763c-0.102,0.24-0.069,0.534,0.097,0.872    c0.001,0.003,0.003,0.006,0.005,0.01c0.051,0.118,1.272,2.904,4,3.353c0.101,0.017,0.173,0.106,0.167,0.208    C25.435,19.994,25.426,20.032,25.41,20.07z"/></g></g></svg>