<?xml version="1.0" encoding="UTF-8"?><svg id="Layer_2" xmlns="http://www.w3.org/2000/svg" viewBox="0 0 1208 1478"><g id="Layer_1-2"><polygon points="1208 739 1072.24 849.24 1171.38 993.39 1009.33 1058.83 1058.17 1226.77 883.81 1232.75 864.24 1406.35 704.98 1336.14 604 1478 503.01 1336.14 343.76 1406.35 324.19 1232.75 149.83 1226.77 198.67 1058.82 36.62 993.39 135.76 849.24 0 739 135.76 628.76 36.62 484.61 198.67 419.17 149.83 251.23 324.19 245.25 343.76 71.65 503.02 141.86 604 0 704.99 141.86 864.24 71.65 883.81 245.25 1058.17 251.23 1009.33 419.18 1171.38 484.61 1072.24 628.76 1208 739"/></g></svg>